# cube.obj
v -0.5 -0.5  0.5
v  0.5 -0.5  0.5
v -0.5  0.5  0.5
v  0.5  0.5  0.5
v -0.5 -0.5 -0.5
v  0.5 -0.5 -0.5
v -0.5  0.5 -0.5
v  0.5  0.5 -0.5

vt 0.0 0.0
vt 1.0 0.0
vt 0.0 1.0
vt 1.0 1.0

vn 0.0 0.0 1.0
vn 0.0 0.0 -1.0
vn 0.0 1.0 0.0
vn 0.0 -1.0 0.0
vn 1.0 0.0 0.0
vn -1.0 0.0 0.0

# Front face (z+)
f 1/1/1 2/2/1 3/3/1
f 2/2/1 4/4/1 3/3/1

# Back face (z-)
f 5/1/2 7/3/2 6/2/2
f 6/2/2 7/3/2 8/4/2

# Top face (y+)
f 3/1/3 4/2/3 7/3/3
f 4/2/3 8/4/3 7/3/3

# Bottom face (y-)
f 1/1/4 5/2/4 2/3/4
f 2/3/4 5/2/4 6/4/4

# Right face (x+)
f 2/1/5 6/2/5 4/3/5
f 4/3/5 6/2/5 8/4/5

# Left face (x-)
f 1/1/6 3/2/6 5/3/6
f 5/3/6 3/2/6 7/4/6